<mxfile host="app.diagrams.net" modified="2022-11-07T11:25:03.141Z" agent="5.0 (Macintosh; Intel Mac OS X 10_15_7) AppleWebKit/537.36 (KHTML, like Gecko) Chrome/107.0.0.0 Safari/537.36" etag="7OjpaV4Qip55fVyd1ug4" version="20.5.1" type="github">
  <diagram id="jCkwWO3RI1cmpPsM1i0n" name="Page-1">
    <mxGraphModel dx="1426" dy="769" grid="1" gridSize="10" guides="1" tooltips="1" connect="1" arrows="1" fold="1" page="1" pageScale="1" pageWidth="827" pageHeight="1169" math="0" shadow="0">
      <root>
        <mxCell id="0" />
        <mxCell id="1" parent="0" />
        <mxCell id="_zXmu_5qA9lJHyc13zO6-1" value="Meditime" style="shape=umlFrame;whiteSpace=wrap;html=1;width=80;height=40;" vertex="1" parent="1">
          <mxGeometry x="120" y="60" width="720" height="700" as="geometry" />
        </mxCell>
        <mxCell id="_zXmu_5qA9lJHyc13zO6-24" style="rounded=0;orthogonalLoop=1;jettySize=auto;html=1;exitX=1;exitY=0.3333333333333333;exitDx=0;exitDy=0;exitPerimeter=0;entryX=0;entryY=0.5;entryDx=0;entryDy=0;endArrow=none;endFill=0;" edge="1" parent="1" source="_zXmu_5qA9lJHyc13zO6-2" target="_zXmu_5qA9lJHyc13zO6-4">
          <mxGeometry relative="1" as="geometry" />
        </mxCell>
        <mxCell id="_zXmu_5qA9lJHyc13zO6-25" style="edgeStyle=none;rounded=0;orthogonalLoop=1;jettySize=auto;html=1;exitX=1;exitY=0.3333333333333333;exitDx=0;exitDy=0;exitPerimeter=0;entryX=0;entryY=0.5;entryDx=0;entryDy=0;endArrow=none;endFill=0;" edge="1" parent="1" source="_zXmu_5qA9lJHyc13zO6-2" target="_zXmu_5qA9lJHyc13zO6-6">
          <mxGeometry relative="1" as="geometry" />
        </mxCell>
        <mxCell id="_zXmu_5qA9lJHyc13zO6-26" style="edgeStyle=none;rounded=0;orthogonalLoop=1;jettySize=auto;html=1;exitX=1;exitY=0.3333333333333333;exitDx=0;exitDy=0;exitPerimeter=0;entryX=0;entryY=0.5;entryDx=0;entryDy=0;endArrow=none;endFill=0;" edge="1" parent="1" source="_zXmu_5qA9lJHyc13zO6-2" target="_zXmu_5qA9lJHyc13zO6-7">
          <mxGeometry relative="1" as="geometry" />
        </mxCell>
        <mxCell id="_zXmu_5qA9lJHyc13zO6-27" style="edgeStyle=none;rounded=0;orthogonalLoop=1;jettySize=auto;html=1;exitX=1;exitY=0.3333333333333333;exitDx=0;exitDy=0;exitPerimeter=0;entryX=0;entryY=0.5;entryDx=0;entryDy=0;endArrow=none;endFill=0;" edge="1" parent="1" source="_zXmu_5qA9lJHyc13zO6-2" target="_zXmu_5qA9lJHyc13zO6-9">
          <mxGeometry relative="1" as="geometry" />
        </mxCell>
        <mxCell id="_zXmu_5qA9lJHyc13zO6-28" style="edgeStyle=none;rounded=0;orthogonalLoop=1;jettySize=auto;html=1;exitX=1;exitY=0.3333333333333333;exitDx=0;exitDy=0;exitPerimeter=0;entryX=0;entryY=0.5;entryDx=0;entryDy=0;endArrow=none;endFill=0;" edge="1" parent="1" source="_zXmu_5qA9lJHyc13zO6-2" target="_zXmu_5qA9lJHyc13zO6-12">
          <mxGeometry relative="1" as="geometry" />
        </mxCell>
        <mxCell id="_zXmu_5qA9lJHyc13zO6-29" style="edgeStyle=none;rounded=0;orthogonalLoop=1;jettySize=auto;html=1;exitX=1;exitY=0.3333333333333333;exitDx=0;exitDy=0;exitPerimeter=0;entryX=0;entryY=0.5;entryDx=0;entryDy=0;endArrow=none;endFill=0;" edge="1" parent="1" source="_zXmu_5qA9lJHyc13zO6-2" target="_zXmu_5qA9lJHyc13zO6-16">
          <mxGeometry relative="1" as="geometry" />
        </mxCell>
        <mxCell id="_zXmu_5qA9lJHyc13zO6-2" value="이용자" style="shape=umlActor;verticalLabelPosition=bottom;verticalAlign=top;html=1;" vertex="1" parent="1">
          <mxGeometry x="40" y="360" width="30" height="60" as="geometry" />
        </mxCell>
        <mxCell id="_zXmu_5qA9lJHyc13zO6-3" value="DB" style="strokeWidth=2;html=1;shape=mxgraph.flowchart.database;whiteSpace=wrap;" vertex="1" parent="1">
          <mxGeometry x="930" y="380" width="80" height="100" as="geometry" />
        </mxCell>
        <mxCell id="_zXmu_5qA9lJHyc13zO6-4" value="회원 로그인" style="rounded=1;whiteSpace=wrap;html=1;arcSize=40;fontColor=#000000;fillColor=#ffffc0;strokeColor=#ff0000;" vertex="1" parent="1">
          <mxGeometry x="390" y="130" width="130" height="40" as="geometry" />
        </mxCell>
        <mxCell id="_zXmu_5qA9lJHyc13zO6-6" value="회원 가입" style="rounded=1;whiteSpace=wrap;html=1;arcSize=40;fontColor=#000000;fillColor=#ffffc0;strokeColor=#ff0000;" vertex="1" parent="1">
          <mxGeometry x="150" y="170" width="120" height="40" as="geometry" />
        </mxCell>
        <mxCell id="_zXmu_5qA9lJHyc13zO6-30" style="edgeStyle=none;rounded=0;orthogonalLoop=1;jettySize=auto;html=1;exitX=1;exitY=0.5;exitDx=0;exitDy=0;entryX=0;entryY=0.5;entryDx=0;entryDy=0;endArrow=none;endFill=0;dashed=1;startArrow=classic;startFill=1;" edge="1" parent="1" source="_zXmu_5qA9lJHyc13zO6-7" target="_zXmu_5qA9lJHyc13zO6-8">
          <mxGeometry relative="1" as="geometry" />
        </mxCell>
        <mxCell id="_zXmu_5qA9lJHyc13zO6-31" style="edgeStyle=none;rounded=0;orthogonalLoop=1;jettySize=auto;html=1;exitX=1;exitY=0.5;exitDx=0;exitDy=0;entryX=0;entryY=0.5;entryDx=0;entryDy=0;dashed=1;endArrow=none;endFill=0;startArrow=classic;startFill=1;" edge="1" parent="1" source="_zXmu_5qA9lJHyc13zO6-7" target="_zXmu_5qA9lJHyc13zO6-17">
          <mxGeometry relative="1" as="geometry" />
        </mxCell>
        <mxCell id="_zXmu_5qA9lJHyc13zO6-39" style="edgeStyle=none;rounded=0;orthogonalLoop=1;jettySize=auto;html=1;exitX=1;exitY=0.5;exitDx=0;exitDy=0;entryX=0.5;entryY=1;entryDx=0;entryDy=0;dashed=1;endArrow=classic;endFill=1;" edge="1" parent="1" source="_zXmu_5qA9lJHyc13zO6-7" target="_zXmu_5qA9lJHyc13zO6-4">
          <mxGeometry relative="1" as="geometry" />
        </mxCell>
        <mxCell id="_zXmu_5qA9lJHyc13zO6-52" style="edgeStyle=none;rounded=0;orthogonalLoop=1;jettySize=auto;html=1;exitX=1;exitY=0.5;exitDx=0;exitDy=0;entryX=0;entryY=0.5;entryDx=0;entryDy=0;entryPerimeter=0;startArrow=none;startFill=0;endArrow=none;endFill=0;" edge="1" parent="1" source="_zXmu_5qA9lJHyc13zO6-7" target="_zXmu_5qA9lJHyc13zO6-3">
          <mxGeometry relative="1" as="geometry">
            <Array as="points">
              <mxPoint x="640" y="360" />
            </Array>
          </mxGeometry>
        </mxCell>
        <mxCell id="_zXmu_5qA9lJHyc13zO6-7" value="약 정보 보기" style="rounded=1;whiteSpace=wrap;html=1;arcSize=40;fontColor=#000000;fillColor=#ffffc0;strokeColor=#ff0000;" vertex="1" parent="1">
          <mxGeometry x="200" y="290" width="120" height="40" as="geometry" />
        </mxCell>
        <mxCell id="_zXmu_5qA9lJHyc13zO6-8" value="약 정보 검색" style="rounded=1;whiteSpace=wrap;html=1;arcSize=40;fontColor=#000000;fillColor=#ffffc0;strokeColor=#ff0000;" vertex="1" parent="1">
          <mxGeometry x="520" y="240" width="120" height="40" as="geometry" />
        </mxCell>
        <mxCell id="_zXmu_5qA9lJHyc13zO6-32" style="edgeStyle=none;rounded=0;orthogonalLoop=1;jettySize=auto;html=1;exitX=1;exitY=0.5;exitDx=0;exitDy=0;entryX=0;entryY=0.5;entryDx=0;entryDy=0;dashed=1;endArrow=none;endFill=0;startArrow=classic;startFill=1;" edge="1" parent="1" source="_zXmu_5qA9lJHyc13zO6-9" target="_zXmu_5qA9lJHyc13zO6-10">
          <mxGeometry relative="1" as="geometry" />
        </mxCell>
        <mxCell id="_zXmu_5qA9lJHyc13zO6-33" style="edgeStyle=none;rounded=0;orthogonalLoop=1;jettySize=auto;html=1;exitX=1;exitY=0.5;exitDx=0;exitDy=0;entryX=0;entryY=0.5;entryDx=0;entryDy=0;dashed=1;endArrow=none;endFill=0;startArrow=classic;startFill=1;" edge="1" parent="1" source="_zXmu_5qA9lJHyc13zO6-9" target="_zXmu_5qA9lJHyc13zO6-11">
          <mxGeometry relative="1" as="geometry" />
        </mxCell>
        <mxCell id="_zXmu_5qA9lJHyc13zO6-40" style="edgeStyle=none;rounded=0;orthogonalLoop=1;jettySize=auto;html=1;exitX=1;exitY=0.5;exitDx=0;exitDy=0;entryX=0.5;entryY=1;entryDx=0;entryDy=0;dashed=1;endArrow=classic;endFill=1;" edge="1" parent="1" source="_zXmu_5qA9lJHyc13zO6-9" target="_zXmu_5qA9lJHyc13zO6-4">
          <mxGeometry relative="1" as="geometry" />
        </mxCell>
        <mxCell id="_zXmu_5qA9lJHyc13zO6-46" style="edgeStyle=none;rounded=0;orthogonalLoop=1;jettySize=auto;html=1;exitX=1;exitY=0.5;exitDx=0;exitDy=0;endArrow=none;endFill=0;entryX=0;entryY=0.5;entryDx=0;entryDy=0;entryPerimeter=0;" edge="1" parent="1" source="_zXmu_5qA9lJHyc13zO6-9" target="_zXmu_5qA9lJHyc13zO6-3">
          <mxGeometry relative="1" as="geometry">
            <mxPoint x="1000" y="310" as="targetPoint" />
            <Array as="points">
              <mxPoint x="620" y="410" />
            </Array>
          </mxGeometry>
        </mxCell>
        <mxCell id="_zXmu_5qA9lJHyc13zO6-9" value="게시판 보기" style="rounded=1;whiteSpace=wrap;html=1;arcSize=40;fontColor=#000000;fillColor=#ffffc0;strokeColor=#ff0000;" vertex="1" parent="1">
          <mxGeometry x="200" y="380" width="120" height="40" as="geometry" />
        </mxCell>
        <mxCell id="_zXmu_5qA9lJHyc13zO6-10" value="게시판 정렬" style="rounded=1;whiteSpace=wrap;html=1;arcSize=40;fontColor=#000000;fillColor=#ffffc0;strokeColor=#ff0000;" vertex="1" parent="1">
          <mxGeometry x="450" y="360" width="120" height="40" as="geometry" />
        </mxCell>
        <mxCell id="_zXmu_5qA9lJHyc13zO6-11" value="게시판 검색" style="rounded=1;whiteSpace=wrap;html=1;arcSize=40;fontColor=#000000;fillColor=#ffffc0;strokeColor=#ff0000;" vertex="1" parent="1">
          <mxGeometry x="450" y="420" width="120" height="40" as="geometry" />
        </mxCell>
        <mxCell id="_zXmu_5qA9lJHyc13zO6-35" style="edgeStyle=none;rounded=0;orthogonalLoop=1;jettySize=auto;html=1;exitX=1;exitY=0.5;exitDx=0;exitDy=0;entryX=0;entryY=0.5;entryDx=0;entryDy=0;dashed=1;endArrow=none;endFill=0;startArrow=classic;startFill=1;" edge="1" parent="1" source="_zXmu_5qA9lJHyc13zO6-12" target="_zXmu_5qA9lJHyc13zO6-13">
          <mxGeometry relative="1" as="geometry" />
        </mxCell>
        <mxCell id="_zXmu_5qA9lJHyc13zO6-36" style="edgeStyle=none;rounded=0;orthogonalLoop=1;jettySize=auto;html=1;exitX=1;exitY=0.5;exitDx=0;exitDy=0;entryX=0;entryY=0.5;entryDx=0;entryDy=0;dashed=1;endArrow=none;endFill=0;startArrow=classic;startFill=1;" edge="1" parent="1" source="_zXmu_5qA9lJHyc13zO6-12" target="_zXmu_5qA9lJHyc13zO6-15">
          <mxGeometry relative="1" as="geometry" />
        </mxCell>
        <mxCell id="_zXmu_5qA9lJHyc13zO6-42" style="edgeStyle=none;rounded=0;orthogonalLoop=1;jettySize=auto;html=1;exitX=1;exitY=0.5;exitDx=0;exitDy=0;entryX=0.5;entryY=1;entryDx=0;entryDy=0;dashed=1;endArrow=classic;endFill=1;" edge="1" parent="1" source="_zXmu_5qA9lJHyc13zO6-12" target="_zXmu_5qA9lJHyc13zO6-4">
          <mxGeometry relative="1" as="geometry" />
        </mxCell>
        <mxCell id="_zXmu_5qA9lJHyc13zO6-54" style="edgeStyle=none;rounded=0;orthogonalLoop=1;jettySize=auto;html=1;exitX=1;exitY=0.5;exitDx=0;exitDy=0;entryX=0;entryY=0.5;entryDx=0;entryDy=0;entryPerimeter=0;startArrow=none;startFill=0;endArrow=none;endFill=0;" edge="1" parent="1" source="_zXmu_5qA9lJHyc13zO6-12" target="_zXmu_5qA9lJHyc13zO6-3">
          <mxGeometry relative="1" as="geometry">
            <Array as="points" />
          </mxGeometry>
        </mxCell>
        <mxCell id="_zXmu_5qA9lJHyc13zO6-12" value="게시글 보기" style="rounded=1;whiteSpace=wrap;html=1;arcSize=40;fontColor=#000000;fillColor=#ffffc0;strokeColor=#ff0000;" vertex="1" parent="1">
          <mxGeometry x="200" y="470" width="120" height="40" as="geometry" />
        </mxCell>
        <mxCell id="_zXmu_5qA9lJHyc13zO6-51" style="edgeStyle=none;rounded=0;orthogonalLoop=1;jettySize=auto;html=1;exitX=1;exitY=0.5;exitDx=0;exitDy=0;startArrow=none;startFill=0;endArrow=none;endFill=0;entryX=0;entryY=0.5;entryDx=0;entryDy=0;entryPerimeter=0;" edge="1" parent="1" source="_zXmu_5qA9lJHyc13zO6-13" target="_zXmu_5qA9lJHyc13zO6-3">
          <mxGeometry relative="1" as="geometry">
            <mxPoint x="1000" y="310" as="targetPoint" />
          </mxGeometry>
        </mxCell>
        <mxCell id="_zXmu_5qA9lJHyc13zO6-13" value="게시글 쓰기, 수정, 삭제" style="rounded=1;whiteSpace=wrap;html=1;arcSize=40;fontColor=#000000;fillColor=#ffffc0;strokeColor=#ff0000;" vertex="1" parent="1">
          <mxGeometry x="440" y="480" width="140" height="40" as="geometry" />
        </mxCell>
        <mxCell id="_zXmu_5qA9lJHyc13zO6-50" style="edgeStyle=none;rounded=0;orthogonalLoop=1;jettySize=auto;html=1;exitX=1;exitY=0.5;exitDx=0;exitDy=0;entryX=0;entryY=0.5;entryDx=0;entryDy=0;entryPerimeter=0;startArrow=none;startFill=0;endArrow=none;endFill=0;" edge="1" parent="1" source="_zXmu_5qA9lJHyc13zO6-15" target="_zXmu_5qA9lJHyc13zO6-3">
          <mxGeometry relative="1" as="geometry" />
        </mxCell>
        <mxCell id="_zXmu_5qA9lJHyc13zO6-15" value="댓글 보기, 쓰기, &lt;br&gt;수정, 삭제" style="rounded=1;whiteSpace=wrap;html=1;arcSize=40;fontColor=#000000;fillColor=#ffffc0;strokeColor=#ff0000;" vertex="1" parent="1">
          <mxGeometry x="450" y="530" width="120" height="50" as="geometry" />
        </mxCell>
        <mxCell id="_zXmu_5qA9lJHyc13zO6-37" style="edgeStyle=none;rounded=0;orthogonalLoop=1;jettySize=auto;html=1;exitX=1;exitY=0.5;exitDx=0;exitDy=0;entryX=0;entryY=0.5;entryDx=0;entryDy=0;dashed=1;endArrow=none;endFill=0;startArrow=classic;startFill=1;" edge="1" parent="1" source="_zXmu_5qA9lJHyc13zO6-16" target="_zXmu_5qA9lJHyc13zO6-18">
          <mxGeometry relative="1" as="geometry" />
        </mxCell>
        <mxCell id="_zXmu_5qA9lJHyc13zO6-43" style="edgeStyle=none;rounded=0;orthogonalLoop=1;jettySize=auto;html=1;exitX=1;exitY=0.5;exitDx=0;exitDy=0;entryX=0.5;entryY=1;entryDx=0;entryDy=0;dashed=1;endArrow=classic;endFill=1;" edge="1" parent="1" source="_zXmu_5qA9lJHyc13zO6-16" target="_zXmu_5qA9lJHyc13zO6-4">
          <mxGeometry relative="1" as="geometry" />
        </mxCell>
        <mxCell id="_zXmu_5qA9lJHyc13zO6-44" style="edgeStyle=none;rounded=0;orthogonalLoop=1;jettySize=auto;html=1;exitX=1;exitY=0.5;exitDx=0;exitDy=0;dashed=1;endArrow=none;endFill=0;startArrow=classic;startFill=1;" edge="1" parent="1" source="_zXmu_5qA9lJHyc13zO6-16" target="_zXmu_5qA9lJHyc13zO6-38">
          <mxGeometry relative="1" as="geometry" />
        </mxCell>
        <mxCell id="_zXmu_5qA9lJHyc13zO6-47" style="edgeStyle=none;rounded=0;orthogonalLoop=1;jettySize=auto;html=1;exitX=1;exitY=0.5;exitDx=0;exitDy=0;entryX=0;entryY=0.5;entryDx=0;entryDy=0;entryPerimeter=0;startArrow=classic;startFill=1;endArrow=none;endFill=0;" edge="1" parent="1" source="_zXmu_5qA9lJHyc13zO6-16" target="_zXmu_5qA9lJHyc13zO6-3">
          <mxGeometry relative="1" as="geometry">
            <Array as="points">
              <mxPoint x="650" y="580" />
            </Array>
          </mxGeometry>
        </mxCell>
        <mxCell id="_zXmu_5qA9lJHyc13zO6-16" value="회원 정보 보기" style="rounded=1;whiteSpace=wrap;html=1;arcSize=40;fontColor=#000000;fillColor=#ffffc0;strokeColor=#ff0000;" vertex="1" parent="1">
          <mxGeometry x="200" y="585" width="120" height="40" as="geometry" />
        </mxCell>
        <mxCell id="_zXmu_5qA9lJHyc13zO6-53" style="edgeStyle=none;rounded=0;orthogonalLoop=1;jettySize=auto;html=1;exitX=1;exitY=0.5;exitDx=0;exitDy=0;entryX=0;entryY=0.5;entryDx=0;entryDy=0;entryPerimeter=0;startArrow=none;startFill=0;endArrow=none;endFill=0;" edge="1" parent="1" source="_zXmu_5qA9lJHyc13zO6-17" target="_zXmu_5qA9lJHyc13zO6-3">
          <mxGeometry relative="1" as="geometry" />
        </mxCell>
        <mxCell id="_zXmu_5qA9lJHyc13zO6-17" value="회원 약 정보 저장, 삭제" style="rounded=1;whiteSpace=wrap;html=1;arcSize=40;fontColor=#000000;fillColor=#ffffc0;strokeColor=#ff0000;" vertex="1" parent="1">
          <mxGeometry x="510" y="290" width="140" height="40" as="geometry" />
        </mxCell>
        <mxCell id="_zXmu_5qA9lJHyc13zO6-49" style="edgeStyle=none;rounded=0;orthogonalLoop=1;jettySize=auto;html=1;exitX=1;exitY=0.5;exitDx=0;exitDy=0;startArrow=none;startFill=0;endArrow=none;endFill=0;entryX=0;entryY=0.5;entryDx=0;entryDy=0;entryPerimeter=0;" edge="1" parent="1" source="_zXmu_5qA9lJHyc13zO6-18" target="_zXmu_5qA9lJHyc13zO6-3">
          <mxGeometry relative="1" as="geometry">
            <mxPoint x="1000" y="310" as="targetPoint" />
          </mxGeometry>
        </mxCell>
        <mxCell id="_zXmu_5qA9lJHyc13zO6-18" value="저장한 약 정보 보기,&lt;br&gt;삭제" style="rounded=1;whiteSpace=wrap;html=1;arcSize=40;fontColor=#000000;fillColor=#ffffc0;strokeColor=#ff0000;" vertex="1" parent="1">
          <mxGeometry x="510" y="660" width="140" height="50" as="geometry" />
        </mxCell>
        <mxCell id="_zXmu_5qA9lJHyc13zO6-45" style="edgeStyle=none;rounded=0;orthogonalLoop=1;jettySize=auto;html=1;exitX=1;exitY=0.5;exitDx=0;exitDy=0;entryX=0;entryY=0.5;entryDx=0;entryDy=0;entryPerimeter=0;endArrow=none;endFill=0;" edge="1" parent="1" source="_zXmu_5qA9lJHyc13zO6-19" target="_zXmu_5qA9lJHyc13zO6-3">
          <mxGeometry relative="1" as="geometry" />
        </mxCell>
        <mxCell id="_zXmu_5qA9lJHyc13zO6-19" value="인증" style="rounded=1;whiteSpace=wrap;html=1;arcSize=40;fontColor=#000000;fillColor=#ffffc0;strokeColor=#ff0000;" vertex="1" parent="1">
          <mxGeometry x="650" y="130" width="120" height="40" as="geometry" />
        </mxCell>
        <mxCell id="_zXmu_5qA9lJHyc13zO6-20" value="로그인 실패" style="rounded=1;whiteSpace=wrap;html=1;arcSize=40;fontColor=#000000;fillColor=#ffffc0;strokeColor=#ff0000;" vertex="1" parent="1">
          <mxGeometry x="650" y="190" width="120" height="40" as="geometry" />
        </mxCell>
        <mxCell id="_zXmu_5qA9lJHyc13zO6-22" value="&amp;lt;&amp;lt;include&amp;gt;&amp;gt;" style="endArrow=classic;endSize=12;dashed=1;html=1;rounded=0;exitX=1;exitY=0.5;exitDx=0;exitDy=0;entryX=0;entryY=0.5;entryDx=0;entryDy=0;endFill=1;" edge="1" parent="1" source="_zXmu_5qA9lJHyc13zO6-4" target="_zXmu_5qA9lJHyc13zO6-19">
          <mxGeometry width="160" relative="1" as="geometry">
            <mxPoint x="370" y="200" as="sourcePoint" />
            <mxPoint x="530" y="200" as="targetPoint" />
          </mxGeometry>
        </mxCell>
        <mxCell id="_zXmu_5qA9lJHyc13zO6-23" value="&amp;lt;&amp;lt;extend&amp;gt;&amp;gt;" style="endArrow=classic;endSize=12;dashed=1;html=1;rounded=0;endFill=1;entryX=1;entryY=0.5;entryDx=0;entryDy=0;exitX=0;exitY=0.5;exitDx=0;exitDy=0;" edge="1" parent="1" source="_zXmu_5qA9lJHyc13zO6-20" target="_zXmu_5qA9lJHyc13zO6-4">
          <mxGeometry width="160" relative="1" as="geometry">
            <mxPoint x="370" y="160" as="sourcePoint" />
            <mxPoint x="520" y="210" as="targetPoint" />
          </mxGeometry>
        </mxCell>
        <mxCell id="_zXmu_5qA9lJHyc13zO6-48" style="edgeStyle=none;rounded=0;orthogonalLoop=1;jettySize=auto;html=1;exitX=1;exitY=0.5;exitDx=0;exitDy=0;entryX=0;entryY=0.5;entryDx=0;entryDy=0;entryPerimeter=0;startArrow=none;startFill=0;endArrow=none;endFill=0;" edge="1" parent="1" source="_zXmu_5qA9lJHyc13zO6-38" target="_zXmu_5qA9lJHyc13zO6-3">
          <mxGeometry relative="1" as="geometry" />
        </mxCell>
        <mxCell id="_zXmu_5qA9lJHyc13zO6-38" value="회원 정보 수정" style="rounded=1;whiteSpace=wrap;html=1;arcSize=40;fontColor=#000000;fillColor=#ffffc0;strokeColor=#ff0000;" vertex="1" parent="1">
          <mxGeometry x="510" y="600" width="140" height="50" as="geometry" />
        </mxCell>
      </root>
    </mxGraphModel>
  </diagram>
</mxfile>
